<mxfile host="app.diagrams.net" modified="2021-05-13T09:58:38.968Z" agent="5.0 (Windows NT 10.0; Win64; x64) AppleWebKit/537.36 (KHTML, like Gecko) Chrome/90.0.4430.212 Safari/537.36" etag="GwBBo2CuwV3XItHrF-Yk" version="14.6.11" type="github">
  <diagram id="9peSq6l4eEjm_6dnP8N0" name="Page-1">
    <mxGraphModel dx="4722" dy="5443" grid="1" gridSize="10" guides="1" tooltips="1" connect="1" arrows="1" fold="1" page="1" pageScale="1" pageWidth="3300" pageHeight="4681" math="0" shadow="0">
      <root>
        <mxCell id="0" />
        <mxCell id="1" parent="0" />
        <mxCell id="ug51U8YEFD2PKiBrwO0X-4" value="" style="shape=hexagon;perimeter=hexagonPerimeter2;whiteSpace=wrap;html=1;fixedSize=1;" parent="1" vertex="1">
          <mxGeometry x="330" y="570" width="510" height="160" as="geometry" />
        </mxCell>
        <mxCell id="ug51U8YEFD2PKiBrwO0X-8" value="" style="ellipse;shape=cloud;whiteSpace=wrap;html=1;fillOpacity=100;" parent="1" vertex="1">
          <mxGeometry x="-230" y="-70" width="1362.5" height="590" as="geometry" />
        </mxCell>
        <mxCell id="ug51U8YEFD2PKiBrwO0X-9" value="Cloud" style="text;html=1;strokeColor=none;fillColor=none;align=center;verticalAlign=middle;whiteSpace=wrap;rounded=0;fontSize=24;" parent="1" vertex="1">
          <mxGeometry x="360" y="-10" width="115" height="70" as="geometry" />
        </mxCell>
        <mxCell id="ug51U8YEFD2PKiBrwO0X-10" value="" style="rounded=1;whiteSpace=wrap;html=1;" parent="1" vertex="1">
          <mxGeometry x="10" y="120" width="330" height="270" as="geometry" />
        </mxCell>
        <mxCell id="ug51U8YEFD2PKiBrwO0X-12" value="" style="endArrow=classic;html=1;entryX=0.75;entryY=0;entryDx=0;entryDy=0;exitX=0.5;exitY=1;exitDx=0;exitDy=0;startArrow=none;" parent="1" source="ug51U8YEFD2PKiBrwO0X-6" target="ug51U8YEFD2PKiBrwO0X-58" edge="1">
          <mxGeometry width="50" height="50" relative="1" as="geometry">
            <mxPoint x="880" y="200" as="sourcePoint" />
            <mxPoint x="690" y="641.46" as="targetPoint" />
          </mxGeometry>
        </mxCell>
        <mxCell id="ug51U8YEFD2PKiBrwO0X-6" value="push the facts and execution logics" style="text;html=1;strokeColor=none;fillColor=none;align=center;verticalAlign=middle;whiteSpace=wrap;rounded=0;" parent="1" vertex="1">
          <mxGeometry x="665" y="490" width="190" height="20" as="geometry" />
        </mxCell>
        <mxCell id="ug51U8YEFD2PKiBrwO0X-13" value="" style="endArrow=none;html=1;entryX=0.5;entryY=0;entryDx=0;entryDy=0;exitX=0.5;exitY=1;exitDx=0;exitDy=0;" parent="1" source="ug51U8YEFD2PKiBrwO0X-43" target="ug51U8YEFD2PKiBrwO0X-6" edge="1">
          <mxGeometry width="50" height="50" relative="1" as="geometry">
            <mxPoint x="880" y="200" as="sourcePoint" />
            <mxPoint x="680" y="640" as="targetPoint" />
          </mxGeometry>
        </mxCell>
        <mxCell id="ug51U8YEFD2PKiBrwO0X-27" value="" style="endArrow=classic;html=1;fontSize=12;exitX=1;exitY=0.5;exitDx=0;exitDy=0;startArrow=none;entryX=0;entryY=0.25;entryDx=0;entryDy=0;" parent="1" source="ug51U8YEFD2PKiBrwO0X-18" target="ug51U8YEFD2PKiBrwO0X-43" edge="1">
          <mxGeometry width="50" height="50" relative="1" as="geometry">
            <mxPoint x="700" y="380" as="sourcePoint" />
            <mxPoint x="750" y="330" as="targetPoint" />
          </mxGeometry>
        </mxCell>
        <mxCell id="ug51U8YEFD2PKiBrwO0X-18" value="pull the facts" style="text;html=1;strokeColor=none;fillColor=none;align=center;verticalAlign=middle;whiteSpace=wrap;rounded=0;fontSize=12;" parent="1" vertex="1">
          <mxGeometry x="405" y="180" width="70" height="20" as="geometry" />
        </mxCell>
        <mxCell id="ug51U8YEFD2PKiBrwO0X-28" value="" style="endArrow=none;html=1;fontSize=12;exitX=1;exitY=0.75;exitDx=0;exitDy=0;" parent="1" source="ug51U8YEFD2PKiBrwO0X-34" target="ug51U8YEFD2PKiBrwO0X-18" edge="1">
          <mxGeometry width="50" height="50" relative="1" as="geometry">
            <mxPoint x="620" y="135" as="sourcePoint" />
            <mxPoint x="860.0230515083003" y="138.9348041230869" as="targetPoint" />
          </mxGeometry>
        </mxCell>
        <mxCell id="ug51U8YEFD2PKiBrwO0X-29" value="&lt;span style=&quot;font-size: 24px&quot;&gt;Rule Generator&lt;/span&gt;" style="text;html=1;strokeColor=none;fillColor=none;align=center;verticalAlign=middle;whiteSpace=wrap;rounded=0;fontSize=12;" parent="1" vertex="1">
          <mxGeometry x="62.5" y="130" width="195" height="20" as="geometry" />
        </mxCell>
        <mxCell id="ug51U8YEFD2PKiBrwO0X-40" style="edgeStyle=orthogonalEdgeStyle;rounded=0;orthogonalLoop=1;jettySize=auto;html=1;exitX=0.5;exitY=1;exitDx=0;exitDy=0;entryX=0.5;entryY=0;entryDx=0;entryDy=0;fontSize=12;" parent="1" source="ug51U8YEFD2PKiBrwO0X-30" target="ug51U8YEFD2PKiBrwO0X-39" edge="1">
          <mxGeometry relative="1" as="geometry" />
        </mxCell>
        <mxCell id="ug51U8YEFD2PKiBrwO0X-30" value="Edit conditions/actions through facts&amp;nbsp;&lt;br&gt;to generate Rules" style="rounded=1;whiteSpace=wrap;html=1;fontSize=12;" parent="1" vertex="1">
          <mxGeometry x="40" y="230" width="240" height="30" as="geometry" />
        </mxCell>
        <mxCell id="ug51U8YEFD2PKiBrwO0X-35" value="" style="edgeStyle=orthogonalEdgeStyle;rounded=0;orthogonalLoop=1;jettySize=auto;html=1;fontSize=12;" parent="1" source="ug51U8YEFD2PKiBrwO0X-34" target="ug51U8YEFD2PKiBrwO0X-30" edge="1">
          <mxGeometry relative="1" as="geometry" />
        </mxCell>
        <mxCell id="ug51U8YEFD2PKiBrwO0X-34" value="Pull facts from the remote jar" style="rounded=1;whiteSpace=wrap;html=1;fontSize=12;" parent="1" vertex="1">
          <mxGeometry x="40" y="180" width="240" height="30" as="geometry" />
        </mxCell>
        <mxCell id="ug51U8YEFD2PKiBrwO0X-42" style="edgeStyle=orthogonalEdgeStyle;rounded=0;orthogonalLoop=1;jettySize=auto;html=1;exitX=0.5;exitY=1;exitDx=0;exitDy=0;entryX=0.5;entryY=0;entryDx=0;entryDy=0;fontSize=12;" parent="1" source="ug51U8YEFD2PKiBrwO0X-39" target="ug51U8YEFD2PKiBrwO0X-41" edge="1">
          <mxGeometry relative="1" as="geometry" />
        </mxCell>
        <mxCell id="ug51U8YEFD2PKiBrwO0X-39" value="Convert Rules to YAML files" style="rounded=1;whiteSpace=wrap;html=1;fontSize=12;" parent="1" vertex="1">
          <mxGeometry x="40" y="280" width="240" height="30" as="geometry" />
        </mxCell>
        <mxCell id="ug51U8YEFD2PKiBrwO0X-41" value="Upload to the storage" style="rounded=1;whiteSpace=wrap;html=1;fontSize=12;" parent="1" vertex="1">
          <mxGeometry x="40" y="330" width="240" height="30" as="geometry" />
        </mxCell>
        <mxCell id="ug51U8YEFD2PKiBrwO0X-43" value="" style="rounded=1;whiteSpace=wrap;html=1;fontSize=12;" parent="1" vertex="1">
          <mxGeometry x="600" y="105" width="320" height="280" as="geometry" />
        </mxCell>
        <mxCell id="ug51U8YEFD2PKiBrwO0X-44" value="Rule engine" style="text;html=1;strokeColor=none;fillColor=none;align=center;verticalAlign=middle;whiteSpace=wrap;rounded=0;fontSize=24;" parent="1" vertex="1">
          <mxGeometry x="650" y="120" width="250" height="20" as="geometry" />
        </mxCell>
        <mxCell id="ug51U8YEFD2PKiBrwO0X-45" value="Jars&lt;br&gt;include the facts and&amp;nbsp;&lt;br&gt;execution logics" style="ellipse;whiteSpace=wrap;html=1;" parent="1" vertex="1">
          <mxGeometry x="710" y="200" width="130" height="80" as="geometry" />
        </mxCell>
        <mxCell id="ug51U8YEFD2PKiBrwO0X-49" value="" style="endArrow=classic;html=1;fontSize=24;exitX=1;exitY=0.75;exitDx=0;exitDy=0;startArrow=none;entryX=0;entryY=0.5;entryDx=0;entryDy=0;" parent="1" source="ug51U8YEFD2PKiBrwO0X-50" target="ug51U8YEFD2PKiBrwO0X-53" edge="1">
          <mxGeometry width="50" height="50" relative="1" as="geometry">
            <mxPoint x="460" y="330" as="sourcePoint" />
            <mxPoint x="510" y="280" as="targetPoint" />
          </mxGeometry>
        </mxCell>
        <mxCell id="ug51U8YEFD2PKiBrwO0X-50" value="push YAML files" style="text;html=1;strokeColor=none;fillColor=none;align=center;verticalAlign=middle;whiteSpace=wrap;rounded=0;fontSize=12;" parent="1" vertex="1">
          <mxGeometry x="280" y="400" width="90" height="20" as="geometry" />
        </mxCell>
        <mxCell id="ug51U8YEFD2PKiBrwO0X-51" value="" style="endArrow=none;html=1;fontSize=24;exitX=1;exitY=0.75;exitDx=0;exitDy=0;" parent="1" source="ug51U8YEFD2PKiBrwO0X-41" target="ug51U8YEFD2PKiBrwO0X-50" edge="1">
          <mxGeometry width="50" height="50" relative="1" as="geometry">
            <mxPoint x="280" y="352.5" as="sourcePoint" />
            <mxPoint x="600" y="280.83333333333303" as="targetPoint" />
          </mxGeometry>
        </mxCell>
        <mxCell id="ug51U8YEFD2PKiBrwO0X-53" value="Rules Storage" style="ellipse;whiteSpace=wrap;html=1;fontSize=12;" parent="1" vertex="1">
          <mxGeometry x="410" y="380" width="120" height="80" as="geometry" />
        </mxCell>
        <mxCell id="ug51U8YEFD2PKiBrwO0X-54" value="" style="endArrow=classic;html=1;fontSize=12;entryX=1;entryY=0.5;entryDx=0;entryDy=0;startArrow=none;" parent="1" source="ug51U8YEFD2PKiBrwO0X-55" target="ug51U8YEFD2PKiBrwO0X-53" edge="1">
          <mxGeometry width="50" height="50" relative="1" as="geometry">
            <mxPoint x="460" y="220" as="sourcePoint" />
            <mxPoint x="510" y="170" as="targetPoint" />
          </mxGeometry>
        </mxCell>
        <mxCell id="ug51U8YEFD2PKiBrwO0X-55" value="pull YAML files" style="text;html=1;strokeColor=none;fillColor=none;align=center;verticalAlign=middle;whiteSpace=wrap;rounded=0;fontSize=12;" parent="1" vertex="1">
          <mxGeometry x="560" y="410" width="90" height="20" as="geometry" />
        </mxCell>
        <mxCell id="ug51U8YEFD2PKiBrwO0X-56" value="" style="endArrow=none;html=1;fontSize=12;entryX=1;entryY=0.5;entryDx=0;entryDy=0;" parent="1" source="ug51U8YEFD2PKiBrwO0X-43" target="ug51U8YEFD2PKiBrwO0X-55" edge="1">
          <mxGeometry width="50" height="50" relative="1" as="geometry">
            <mxPoint x="600" y="370.9574468085102" as="sourcePoint" />
            <mxPoint x="525" y="430" as="targetPoint" />
          </mxGeometry>
        </mxCell>
        <mxCell id="ug51U8YEFD2PKiBrwO0X-57" value="Head Unit" style="text;html=1;strokeColor=none;fillColor=none;align=center;verticalAlign=middle;whiteSpace=wrap;rounded=0;fontSize=24;" parent="1" vertex="1">
          <mxGeometry x="530" y="580" width="110" height="20" as="geometry" />
        </mxCell>
        <mxCell id="ug51U8YEFD2PKiBrwO0X-61" style="edgeStyle=orthogonalEdgeStyle;rounded=0;orthogonalLoop=1;jettySize=auto;html=1;entryX=1;entryY=0.5;entryDx=0;entryDy=0;fontSize=12;startArrow=none;" parent="1" source="ug51U8YEFD2PKiBrwO0X-62" target="ug51U8YEFD2PKiBrwO0X-59" edge="1">
          <mxGeometry relative="1" as="geometry" />
        </mxCell>
        <mxCell id="ug51U8YEFD2PKiBrwO0X-58" value="&lt;font style=&quot;font-size: 12px&quot;&gt;Remote Update&lt;/font&gt;" style="rounded=1;whiteSpace=wrap;html=1;fontSize=12;" parent="1" vertex="1">
          <mxGeometry x="680" y="620" width="105" height="60" as="geometry" />
        </mxCell>
        <mxCell id="ug51U8YEFD2PKiBrwO0X-59" value="&lt;font style=&quot;font-size: 12px&quot;&gt;Car Interface&lt;/font&gt;" style="rounded=1;whiteSpace=wrap;html=1;fontSize=12;" parent="1" vertex="1">
          <mxGeometry x="370" y="620" width="120" height="60" as="geometry" />
        </mxCell>
        <mxCell id="ug51U8YEFD2PKiBrwO0X-62" value="call" style="text;html=1;strokeColor=none;fillColor=none;align=center;verticalAlign=middle;whiteSpace=wrap;rounded=0;fontSize=12;" parent="1" vertex="1">
          <mxGeometry x="590" y="640" width="30" height="20" as="geometry" />
        </mxCell>
        <mxCell id="ug51U8YEFD2PKiBrwO0X-63" value="" style="edgeStyle=orthogonalEdgeStyle;rounded=0;orthogonalLoop=1;jettySize=auto;html=1;entryX=1;entryY=0.5;entryDx=0;entryDy=0;fontSize=12;endArrow=none;" parent="1" source="ug51U8YEFD2PKiBrwO0X-58" target="ug51U8YEFD2PKiBrwO0X-62" edge="1">
          <mxGeometry relative="1" as="geometry">
            <mxPoint x="680" y="650" as="sourcePoint" />
            <mxPoint x="490" y="650" as="targetPoint" />
          </mxGeometry>
        </mxCell>
        <mxCell id="5pM0hY34elz7tYluStAw-1" value="Facts" style="rounded=1;whiteSpace=wrap;html=1;" vertex="1" parent="1">
          <mxGeometry x="-135" y="-195" width="120" height="60" as="geometry" />
        </mxCell>
        <mxCell id="5pM0hY34elz7tYluStAw-3" value="" style="rounded=1;whiteSpace=wrap;html=1;" vertex="1" parent="1">
          <mxGeometry x="165" y="-280" width="180" height="230" as="geometry" />
        </mxCell>
        <mxCell id="5pM0hY34elz7tYluStAw-4" value="Conditions" style="rounded=1;whiteSpace=wrap;html=1;" vertex="1" parent="1">
          <mxGeometry x="195" y="-230" width="120" height="60" as="geometry" />
        </mxCell>
        <mxCell id="5pM0hY34elz7tYluStAw-5" value="Actions" style="rounded=1;whiteSpace=wrap;html=1;" vertex="1" parent="1">
          <mxGeometry x="195" y="-140" width="120" height="60" as="geometry" />
        </mxCell>
        <mxCell id="5pM0hY34elz7tYluStAw-6" value="Rules" style="text;html=1;strokeColor=none;fillColor=none;align=center;verticalAlign=middle;whiteSpace=wrap;rounded=0;" vertex="1" parent="1">
          <mxGeometry x="235" y="-270" width="40" height="20" as="geometry" />
        </mxCell>
        <mxCell id="5pM0hY34elz7tYluStAw-10" value="" style="endArrow=classic;html=1;exitX=1;exitY=0.5;exitDx=0;exitDy=0;entryX=0;entryY=0.5;entryDx=0;entryDy=0;" edge="1" parent="1" source="5pM0hY34elz7tYluStAw-1" target="5pM0hY34elz7tYluStAw-4">
          <mxGeometry width="50" height="50" relative="1" as="geometry">
            <mxPoint x="335" y="110" as="sourcePoint" />
            <mxPoint x="385" y="60" as="targetPoint" />
          </mxGeometry>
        </mxCell>
        <mxCell id="5pM0hY34elz7tYluStAw-11" value="" style="endArrow=classic;html=1;exitX=1;exitY=0.5;exitDx=0;exitDy=0;entryX=0;entryY=0.5;entryDx=0;entryDy=0;" edge="1" parent="1" source="5pM0hY34elz7tYluStAw-1" target="5pM0hY34elz7tYluStAw-5">
          <mxGeometry width="50" height="50" relative="1" as="geometry">
            <mxPoint x="335" y="110" as="sourcePoint" />
            <mxPoint x="385" y="60" as="targetPoint" />
          </mxGeometry>
        </mxCell>
        <mxCell id="5pM0hY34elz7tYluStAw-15" value="" style="shape=hexagon;perimeter=hexagonPerimeter2;whiteSpace=wrap;html=1;fixedSize=1;" vertex="1" parent="1">
          <mxGeometry x="515" y="-243.75" width="500" height="157.5" as="geometry" />
        </mxCell>
        <mxCell id="5pM0hY34elz7tYluStAw-16" value="HeadUnit" style="text;html=1;strokeColor=none;fillColor=none;align=center;verticalAlign=middle;whiteSpace=wrap;rounded=0;" vertex="1" parent="1">
          <mxGeometry x="721.5" y="-230" width="87" height="20" as="geometry" />
        </mxCell>
        <mxCell id="5pM0hY34elz7tYluStAw-17" value="Rule Engine" style="rounded=1;whiteSpace=wrap;html=1;" vertex="1" parent="1">
          <mxGeometry x="585" y="-195" width="120" height="60" as="geometry" />
        </mxCell>
        <mxCell id="5pM0hY34elz7tYluStAw-18" value="Car Interface" style="rounded=1;whiteSpace=wrap;html=1;" vertex="1" parent="1">
          <mxGeometry x="825" y="-195" width="120" height="60" as="geometry" />
        </mxCell>
        <mxCell id="5pM0hY34elz7tYluStAw-19" value="" style="endArrow=classic;html=1;exitX=1;exitY=0.5;exitDx=0;exitDy=0;entryX=0;entryY=0.5;entryDx=0;entryDy=0;" edge="1" parent="1" source="5pM0hY34elz7tYluStAw-3" target="5pM0hY34elz7tYluStAw-17">
          <mxGeometry width="50" height="50" relative="1" as="geometry">
            <mxPoint x="335" as="sourcePoint" />
            <mxPoint x="385" y="-50" as="targetPoint" />
          </mxGeometry>
        </mxCell>
        <mxCell id="5pM0hY34elz7tYluStAw-20" value="" style="endArrow=classic;html=1;exitX=1;exitY=0.5;exitDx=0;exitDy=0;" edge="1" parent="1" source="5pM0hY34elz7tYluStAw-17" target="5pM0hY34elz7tYluStAw-18">
          <mxGeometry width="50" height="50" relative="1" as="geometry">
            <mxPoint x="335" as="sourcePoint" />
            <mxPoint x="385" y="-50" as="targetPoint" />
          </mxGeometry>
        </mxCell>
      </root>
    </mxGraphModel>
  </diagram>
</mxfile>
